<svg id="Capa_1" enable-background="new 0 0 531.765 531.765" height="512" viewBox="0 0 531.765 531.765" width="512" xmlns="http://www.w3.org/2000/svg"><path d="m487.786 348.76-205.286-109.476v-41.982c28.643-7.384 49.853-33.446 49.853-64.361 0-36.66-29.811-66.471-66.471-66.471s-66.471 29.811-66.471 66.471h33.235c0-18.322 14.914-33.235 33.235-33.235 18.322 0 33.235 14.914 33.235 33.235s-14.914 33.235-33.235 33.235c-9.185 0-16.618 7.433-16.618 16.618v56.492l-205.285 109.49c-27.133 14.475-43.978 42.566-43.978 73.319v26.582c0 9.185 7.433 16.618 16.618 16.618h498.529c9.185 0 16.618-7.432 16.618-16.618v-26.582c0-30.753-16.845-58.844-43.979-73.335zm10.743 83.299h-465.294v-9.964c0-18.451 10.11-35.313 26.387-43.995l206.26-109.995 206.26 109.978c16.277 8.698 26.387 25.559 26.387 44.011z"/></svg>